PathFileType	4	(X/Y/Z)	Patient4_TMGait_0pt5_01_right_39.trc.trc
DataRate	CameraRate	NumFrames	NumMarkers	Units	OrigDataRate	OrigDataStartFrame	OrigNumFrames
74.866310160428	74.866310160428	6	33	mm	74.866310160428	106	       141
Frame#	Time	L.ASIS			Sacral			L.Shoulder			Chest			R.Shoulder			Neck			R.ASIS			R.Thigh.Superior			R.Thigh.Lateral			R.Thigh.Inferior			R.Patella			L.Thigh.Superior			L.Thigh.Lateral			L.Thigh.Inferior			L.Patella			L.Shank.Superior			L.Shank.Lateral			L.Shank.Inferior			R.Shank.Superior			R.Shank.Lateral			R.Shank.Inferior			R.Heel			R.Midfoot.Superior			R.Midfoot.Lateral			R.Toe			L.Heel			L.Midfoot.Lateral			L.Midfoot.Superior			L.Toe			L.Elbow			L.Wrist			R.Elbow			R.Wrist			
		X1	Y1	Z1	X2	Y2	Z2	X3	Y3	Z3	X4	Y4	Z4	X5	Y5	Z5	X6	Y6	Z6	X7	Y7	Z7	X8	Y8	Z8	X9	Y9	Z9	X10	Y10	Z10	X11	Y11	Z11	X12	Y12	Z12	X13	Y13	Z13	X14	Y14	Z14	X15	Y15	Z15	X16	Y16	Z16	X17	Y17	Z17	X18	Y18	Z18	X19	Y19	Z19	X20	Y20	Z20	X21	Y21	Z21	X22	Y22	Z22	X23	Y23	Z23	X24	Y24	Z24	X25	Y25	Z25	X26	Y26	Z26	X27	Y27	Z27	X28	Y28	Z28	X29	Y29	Z29	X30	Y30	Z30	X31	Y31	Z31	X32	Y32	Z32	X33	Y33	Z33	

106	52.722500000000	784.906164499496	968.019131869611	296.493972358862	562.806854551297	1013.081123725055	442.419121118905	749.511235583593	1441.607840710803	264.962275152974	840.496833502741	1375.482735326352	434.402874815317	742.740157459236	1448.733134445955	602.326793932444	735.410483185901	1504.255241769072	415.107951444632	783.636824221058	955.020669244492	570.612291441364	870.877956663818	789.781295477538	545.546215283412	834.166927968306	667.729448648811	619.732874608091	927.006629720476	629.782703564332	544.220778903252	950.774002144713	519.480927397329	568.698580338104	815.570691317610	748.462665296112	326.216886504912	715.568769329850	639.525004727343	269.851675338804	792.127120024264	556.752245506718	333.721873644110	786.764667586760	488.866573474005	346.057823065061	761.453557125347	418.762549971571	339.357112084233	671.910625999759	303.445623103473	292.357346633774	722.179978101669	194.596814784442	367.239236086270	883.597815708073	438.675106701253	572.904389936930	768.431600681025	382.642604567206	630.733516276244	769.739402470678	273.285569995558	580.572429030160	579.145985231837	186.400111140596	551.169733699807	753.760957018165	148.937133351577	588.670948085050	645.445351675041	129.576851279001	620.298217811731	833.482478410832	45.287511377614	607.632971847674	592.681849533181	38.702460749622	414.983023817554	666.561064259286	34.911296723072	333.686555760140	750.830989941552	95.739052368385	358.570802521348	878.605765966099	41.868787389605	331.221877374022	811.044965971774	1102.289094659905	121.933299439071	1019.276331565621	943.835931757987	114.177340330250	625.697362498917	1122.099761186278	711.239135283371	617.002085098449	860.916553139838	721.025523117428	
107	52.735857142857	784.072758421320	968.020910257776	296.842513794070	561.768299285047	1013.742015328427	441.613619615654	750.741720433567	1441.680568821310	264.217260025037	840.181170748662	1375.640711526497	434.427519581057	741.532896512251	1449.698007432615	601.523204719294	735.285462896787	1504.534308424587	414.085293045812	781.828252547285	955.623636843197	570.858603420446	869.396955458496	791.248385940538	545.847086656706	833.550939259427	668.850476532710	620.080598169150	926.334010824381	631.511444039516	544.389251597223	951.546574003612	522.731522702180	568.964205357071	812.121081879440	747.573627151208	326.775073205138	710.710237603593	639.897635714869	269.591818503717	785.817218300623	556.213839468650	333.660085507532	779.550294553876	488.707652545299	345.877528601885	754.402663931482	418.935217799134	339.056190006638	664.791239925365	303.632956503167	292.064630734307	715.287600617082	194.805379359129	367.032042886429	888.051639577706	440.196631899466	572.989186822603	776.006323914964	378.280696935908	630.631283246437	783.255142642748	269.132985300506	580.377361330835	597.748849492388	171.780081266119	550.363354803642	773.909977465539	144.369192282681	588.466127725754	666.886084283571	119.111276381157	620.023359155891	859.308110860050	45.703397115905	608.152582357011	585.929712248896	38.760051083501	414.902649944501	659.814786638041	34.885739006226	333.636663509959	744.120355814747	95.776522774896	358.415587194468	871.860922710757	41.895310791777	331.209051470571	815.623122452325	1103.749300817555	120.730281523931	1028.508407945710	951.635236972723	113.208873234679	616.659640946682	1126.624311110136	710.567254408350	601.439369085462	866.026314707429	721.942085441619	
108	52.749214285714	783.251209534849	967.834045799476	297.284908763077	560.735159590860	1014.208347982666	440.931110465769	751.873091573596	1441.521777060128	263.609454327390	839.880825021216	1375.576020513933	434.538322309730	740.462702450298	1450.440822072640	600.866288565146	735.187608946909	1504.600882366739	413.205061661716	780.054110946749	955.960359029073	571.223619727215	867.534607711914	791.984304834551	546.289479850330	832.154222148585	669.332616832143	620.469224305933	924.720037300449	632.363627819404	544.519102635624	951.235501871234	525.360329715481	569.094857688004	808.768200852368	746.609933779206	327.393825488103	706.010232614859	640.168579292270	269.368620657456	779.685337055457	555.623768498957	333.637108975137	772.533437835602	488.481236904400	345.733243963013	747.492190150893	419.018283325668	338.810202243113	657.796999781219	303.757399860014	291.786012424444	708.445097621602	194.941108243964	366.872717922969	891.739394866036	441.266822329947	573.109326529239	783.457163267172	373.323340988491	630.821478554855	796.927022360316	264.700950087882	580.495131015780	617.472348378883	156.571690001706	550.113274379899	794.640321902196	139.833506186343	588.729007546356	689.366477166211	108.505084085881	620.353997459561	885.702529149159	46.697857712960	609.223248018598	579.192239703683	38.787362067449	414.834722689847	653.064827459906	34.853470401371	333.599448068178	737.399950896244	95.802826251286	358.294076024638	865.114751161493	41.932723013913	331.203886341528	819.796688522603	1104.888466643018	119.787442337533	1036.946293631248	958.954480490902	112.567105300381	608.441377133256	1130.855868735264	709.990352745425	587.286604708340	870.928066702884	722.916149996010	
109	52.762571428571	782.466001499834	967.467298220329	297.808794331958	559.720025886140	1014.466050842246	440.373089083955	752.888122353497	1441.130201002544	263.152837252424	839.597116802085	1375.280981618394	434.744484211787	739.526893934245	1450.930740623245	600.373362930577	735.127274200505	1504.450901341982	412.492131322804	778.334927194905	956.015342221831	571.702205484857	865.312557230238	791.969883626477	546.841827074497	829.988510399455	669.172205587736	620.881451750137	922.187837407785	632.334652877952	544.591261251001	949.883177501595	527.346940924522	569.045853257281	805.548688018369	745.573731232708	328.044717106514	701.507503309883	640.330133769886	269.189048756661	773.778138782410	554.978489263853	333.656694164071	765.770171618709	488.179257146080	345.628094524637	740.761455816594	419.003373488340	338.623128974673	650.958233444090	303.818556084734	291.526070841224	701.667630740264	194.998563921662	366.763174301792	894.643803481982	441.919484360357	573.235166245528	790.752102386486	367.948917652187	631.281924619692	810.597450741910	260.214102410159	580.889043974022	638.136118085869	141.222429991543	550.391018132238	815.675068295846	135.612441035940	589.415114870203	712.622655728384	98.143793953671	621.235468998121	912.253152954781	48.513239298178	610.772585075367	572.467171332760	38.785600763708	414.779406687090	646.311730341209	34.816087993803	333.574850166239	730.670445451884	95.815396472741	358.208894839246	858.367118809311	41.976322818399	331.206174183767	823.573583429350	1105.694585527657	119.103776841358	1044.580181925641	965.708759869089	112.237558453303	601.102323746304	1134.672716551173	709.513850538857	574.583887474366	875.457823283938	723.937139378161	
110	52.775928571429	781.736352059991	966.938764054457	298.400912886556	558.743351231734	1014.513009734510	439.944496032671	753.774124982673	1440.521620834871	262.866419156213	839.332843295226	1374.762447528914	435.056505405290	738.722877235813	1451.151080296049	600.062471809084	735.111025528051	1504.093369840428	411.973687476536	776.695292572895	955.788182473471	572.285581357904	862.764457354927	791.217036587828	547.478896640660	827.089400053691	668.397558793783	621.314872365492	918.794312390886	631.459360415224	544.610791917403	947.557524855081	528.696017299546	568.808718373807	802.487457341644	744.471904503225	328.709191063480	697.226821268227	640.383580206616	269.059501421566	768.120757190733	554.279593369277	333.725448408850	759.295035577278	487.801294881953	345.563611548471	734.232997443462	418.892021746057	338.496268334513	644.290688835151	303.822800619766	291.288126452357	694.963033387978	194.980081940895	366.701682029235	896.759445148765	442.198858027164	573.352778583469	797.822212633961	362.336543906846	631.967615373869	824.076528329470	255.874844507428	581.500876153574	659.467097438860	126.159255743526	551.106040484556	836.691131003783	131.935632136112	590.446491465555	736.304817782406	88.361325826708	622.553213861742	938.513978618635	51.303663756783	612.698051590271	565.750357611527	38.758682657694	414.736699086465	639.555625507588	34.775510926221	333.561795050181	723.932361121018	95.813156189005	358.159701159174	851.617271540075	42.022550060362	331.215463839999	826.952429656532	1106.171555451237	118.685026502168	1051.395400340300	971.825491167577	112.206481985341	594.686244154152	1137.971126195733	709.150274458130	563.371020241639	879.477748864913	724.995570830486	
111	52.789285714286	781.077702718694	966.273034352001	299.048156357899	557.832510750381	1014.355832294301	439.653587741194	754.522358719437	1439.725669937672	262.772045334501	839.091542689712	1374.039679200423	435.485195412278	738.048287943739	1451.098564593891	599.951322925366	735.140219505293	1503.547497374439	411.676984008159	775.162898378595	955.290801502462	572.961867575187	859.939887459955	789.769000595552	548.183410222948	823.523531119632	667.064770403933	621.779008044782	914.635725219346	629.808814277337	544.603847129150	944.353564052617	529.432626627657	568.410703491090	799.597290946168	743.314779187734	329.378321373372	693.179825430610	640.337637845001	268.983673985785	762.719552601133	553.533004646716	333.850818035721	753.121834835103	487.352506999460	345.539783252385	727.915241214490	418.693816206738	338.427775834832	637.797594919940	303.782014330343	291.073623412177	688.332932986462	194.894455227368	366.682760962466	898.093611259697	442.151457434263	573.463387218025	804.558387602932	356.653801810852	632.810293193582	837.141275621389	251.846669008614	582.255528635907	681.092521116776	111.772116805812	552.112566119073	857.319600644499	128.957232372829	591.717966323899	759.973490588613	79.421569484457	624.144483032596	964.005585872599	55.100309694055	614.876334192672	559.036895974561	38.712780324765	414.706324883705	632.796317546590	34.733748957316	333.558246859859	717.186137056325	95.796452508676	358.143236277432	844.864021546401	42.068983200741	331.231090193651	829.921777229329	1106.335181438834	118.541843078119	1057.373770891187	977.243787925603	112.459833963457	589.222819953303	1140.669012290960	708.919253530425	553.686854052130	882.876237087065	726.082850015480	
